<svg width="57" height="50" viewBox="0 0 57 50" fill="none" xmlns="http://www.w3.org/2000/svg">
<path d="M27.2798 18.5508C27.2485 18.6641 27.2329 18.9492 27.2329 19.4062V19.9219H25.8208V24H24.3852V19.9219H23.5239C23.5278 19.6641 23.5317 19.4355 23.5356 19.2363L23.5473 18.6094V18.5508H24.3852V18.1875C24.3852 17.25 24.604 16.4961 25.0415 15.9258C25.4985 15.3359 26.1274 15.041 26.9282 15.041C27.268 15.041 27.4927 15.0645 27.602 15.1113L27.6079 16.582L27.5962 16.6113C27.4477 16.4629 27.2583 16.3887 27.0278 16.3887C26.8013 16.3887 26.6177 16.4277 26.477 16.5059C26.3364 16.5801 26.2173 16.6875 26.1196 16.8281C25.9204 17.1094 25.8208 17.4941 25.8208 17.9824V18.5508H27.2798ZM35.4025 22.7109C35.9064 22.7109 36.2521 22.5801 36.4396 22.3184H36.4865L36.5041 23.6777C36.3127 23.8691 35.9572 23.9961 35.4377 24.0586C35.297 24.0781 35.1213 24.0879 34.9103 24.0879C34.7033 24.0879 34.4767 24.0488 34.2306 23.9707C33.9884 23.8926 33.7814 23.7656 33.6095 23.5898C33.2541 23.2266 33.0763 22.6582 33.0763 21.8848V19.2246H32.1916C32.1877 19.1113 32.1857 18.9961 32.1857 18.8789V17.9766C32.1857 17.9102 32.1877 17.877 32.1916 17.877H33.0763V16.207H34.5119V17.877H36.1232V19.2246H34.5119V21.6152C34.5119 22.2285 34.6818 22.5781 35.0216 22.6641C35.131 22.6953 35.258 22.7109 35.4025 22.7109ZM41.7264 20.9883C41.7264 20.5312 41.8045 20.1074 41.9608 19.7168C42.117 19.3262 42.3377 18.9844 42.6229 18.6914C43.2323 18.0703 44.0291 17.7598 45.0135 17.7598C45.8455 17.7598 46.5135 18.0352 47.0174 18.5859C47.5135 19.1172 47.7616 19.7852 47.7616 20.5898C47.7616 20.8984 47.7381 21.1094 47.6912 21.2227C47.3006 21.332 46.5057 21.3867 45.3065 21.3867H43.244C43.3455 21.8047 43.5819 22.1309 43.953 22.3652C44.3241 22.5957 44.8065 22.7109 45.4002 22.7109C46.0213 22.7109 46.5545 22.5996 46.9998 22.377C47.117 22.3184 47.2049 22.2637 47.2635 22.2129C47.2557 22.377 47.2459 22.5449 47.2342 22.7168L47.1698 23.6309C46.8729 23.834 46.3924 23.9746 45.7284 24.0527C45.533 24.0762 45.3455 24.0879 45.1659 24.0879C44.1737 24.0879 43.3534 23.7988 42.7049 23.2207C42.0526 22.6387 41.7264 21.8945 41.7264 20.9883ZM46.203 20.25C46.0428 19.4102 45.5858 18.9902 44.8319 18.9902C44.2381 18.9902 43.787 19.2461 43.4784 19.7578C43.3846 19.9141 43.3123 20.0859 43.2616 20.2734C43.3553 20.2773 43.4705 20.2812 43.6073 20.2852H44.0409C44.1854 20.2891 44.3241 20.291 44.4569 20.291H44.7909C44.9901 20.291 45.1854 20.2891 45.3768 20.2852L45.8573 20.2676C45.9862 20.2637 46.1014 20.2578 46.203 20.25ZM54.7417 23.3438C54.7417 23.6797 54.7495 23.8984 54.7652 24H53.3062V17.877H54.7417V18.3281C55.0738 17.9492 55.4214 17.7598 55.7847 17.7598C56.1519 17.7598 56.4409 17.8047 56.6519 17.8945L56.5464 19.4707L56.523 19.4883C56.3863 19.2461 56.103 19.125 55.6734 19.125C55.5093 19.125 55.3413 19.1816 55.1695 19.2949C55.0015 19.4043 54.8589 19.5508 54.7417 19.7344V23.3438Z" fill="#A7D1F9"/>
<path d="M23.5234 28.877H25.0996L26.1895 33.2773L27.3613 28.877H28.709L29.9219 33.3711L31.0117 28.877H32.4297L30.625 35H29.1074L27.9473 30.9863L26.8691 35H25.3633L23.5234 28.877ZM37.3867 34.6367C36.832 34.9375 36.3301 35.0879 35.8809 35.0879C35.4316 35.0879 35.0469 35.0469 34.7266 34.9648C34.4062 34.8789 34.1348 34.7539 33.9121 34.5898C33.459 34.2578 33.2324 33.7773 33.2324 33.1484C33.2324 32.5859 33.5098 32.1172 34.0645 31.7422C34.666 31.3359 35.4824 31.1328 36.5137 31.1328L36.748 31.1387C36.7949 31.1426 36.8477 31.1465 36.9062 31.1504C36.9648 31.1504 37.0176 31.1543 37.0645 31.1621C37.0332 30.5371 36.7637 30.1719 36.2559 30.0664C36.0879 30.0312 35.9082 30.0137 35.7168 30.0137C35.5293 30.0137 35.3438 30.0312 35.1602 30.0664C34.9805 30.0977 34.8047 30.1406 34.6328 30.1953C34.2539 30.3164 33.9824 30.4551 33.8184 30.6113L33.8008 30.5996L33.625 29.3047C34.3164 28.9414 35.0723 28.7598 35.8926 28.7598C37.166 28.7598 37.9805 29.2188 38.3359 30.1367C38.4492 30.4297 38.5059 30.7598 38.5059 31.127V33.248C38.5059 33.7012 38.666 34.0098 38.9863 34.1738L37.9258 35.1465C37.7031 35.0293 37.5234 34.8594 37.3867 34.6367ZM37.0703 32.2168C36.9648 32.1973 36.8555 32.1875 36.7422 32.1875H36.5078C35.6445 32.1875 35.0957 32.3789 34.8613 32.7617C34.791 32.875 34.7559 32.9941 34.7559 33.1191C34.7559 33.2441 34.7773 33.3555 34.8203 33.4531C34.8672 33.5469 34.9434 33.625 35.0488 33.6875C35.252 33.8047 35.5527 33.8633 35.9512 33.8633C36.3535 33.8633 36.7285 33.7676 37.0762 33.5762C37.0723 33.5332 37.0703 33.4883 37.0703 33.4414V32.2168ZM41.7227 34.3438C41.7227 34.6797 41.7305 34.8984 41.7461 35H40.2871V28.877H41.7227V29.3281C42.0547 28.9492 42.4023 28.7598 42.7656 28.7598C43.1328 28.7598 43.4219 28.8047 43.6328 28.8945L43.5273 30.4707L43.5039 30.4883C43.3672 30.2461 43.084 30.125 42.6543 30.125C42.4902 30.125 42.3223 30.1816 42.1504 30.2949C41.9824 30.4043 41.8398 30.5508 41.7227 30.7344V34.3438ZM48.5488 34.6719C48.0527 34.9492 47.5566 35.0879 47.0605 35.0879C46.5645 35.0879 46.1309 35.0098 45.7598 34.8535C45.3887 34.6973 45.0723 34.4824 44.8105 34.209C44.2715 33.6465 44.002 32.916 44.002 32.0176C44.002 31.0879 44.3145 30.3145 44.9395 29.6973C45.5684 29.0723 46.373 28.7598 47.3535 28.7598C47.6543 28.7598 47.9492 28.7988 48.2383 28.877V26.2695H49.6738V32.5332C49.6738 33.0527 49.6973 33.3926 49.7441 33.5527C49.7949 33.7129 49.8496 33.8301 49.9082 33.9043C49.9707 33.9785 50.0488 34.0488 50.1426 34.1152L49.041 35.0879C48.8379 34.9785 48.6738 34.8398 48.5488 34.6719ZM47.3359 33.7402C47.6641 33.7402 47.9648 33.6777 48.2383 33.5527V30.3066C47.9648 30.1934 47.668 30.1367 47.3477 30.1367C47.0273 30.1367 46.752 30.1797 46.5215 30.2656C46.2949 30.3516 46.0996 30.4707 45.9355 30.623C45.5918 30.9434 45.4199 31.3594 45.4199 31.8711C45.4199 32.4297 45.5762 32.875 45.8887 33.207C46.2246 33.5625 46.707 33.7402 47.3359 33.7402ZM53.4297 35.0879C52.3281 35.0879 51.498 34.8867 50.9395 34.4844C50.9473 34.3672 50.959 34.2344 50.9746 34.0859L51.0273 33.6641C51.0586 33.3867 51.0781 33.2148 51.0859 33.1484C51.0938 33.0781 51.0996 33.041 51.1035 33.0371C51.1074 33.0293 51.1387 33.0605 51.1973 33.1309C51.2559 33.1973 51.3672 33.2793 51.5312 33.377C51.6953 33.4746 51.8848 33.5605 52.0996 33.6348C52.5645 33.7949 53.0488 33.875 53.5527 33.875C54.2285 33.875 54.5664 33.6504 54.5664 33.2012C54.5664 33.0566 54.502 32.9492 54.373 32.8789C54.1426 32.7617 53.8027 32.6738 53.3535 32.6152C52.9082 32.5527 52.543 32.4629 52.2578 32.3457C51.9727 32.2285 51.7402 32.0879 51.5605 31.9238C51.2285 31.6152 51.0625 31.2109 51.0625 30.7109C51.0625 30.1016 51.2969 29.623 51.7656 29.2754C52.2305 28.9316 52.873 28.7598 53.6934 28.7598C54.5059 28.7598 55.1992 28.9902 55.7734 29.4512C55.7461 29.5527 55.7168 29.6504 55.6855 29.7441C55.5957 30.002 55.5293 30.1875 55.4863 30.3008L55.3516 30.6465C55.3438 30.6777 55.3379 30.6934 55.334 30.6934C55.3262 30.6934 55.2949 30.6523 55.2402 30.5703C54.9941 30.2852 54.6113 30.0977 54.0918 30.0078C53.9316 29.9766 53.7676 29.9609 53.5996 29.9609C52.8887 29.9609 52.5332 30.1758 52.5332 30.6055C52.5332 30.7539 52.6074 30.8672 52.7559 30.9453C53.0332 31.0938 53.4121 31.2031 53.8926 31.2734C54.377 31.3438 54.7441 31.4395 54.9941 31.5605C55.2441 31.6777 55.4453 31.8203 55.5977 31.9883C55.8789 32.293 56.0195 32.6973 56.0195 33.2012C56.0195 33.752 55.7988 34.1992 55.3574 34.543C54.8965 34.9062 54.2539 35.0879 53.4297 35.0879Z" fill="#A7D1F9"/>
<path d="M16.6875 34.7891C14.8385 35.7917 13.1654 36.293 11.668 36.293C10.1706 36.293 8.88802 36.1562 7.82031 35.8828C6.7526 35.5964 5.84766 35.1797 5.10547 34.6328C3.59505 33.526 2.83984 31.9245 2.83984 29.8281C2.83984 27.9531 3.76432 26.3906 5.61328 25.1406C7.61849 23.7865 10.3398 23.1094 13.7773 23.1094L14.5586 23.1289C14.7148 23.1419 14.8906 23.1549 15.0859 23.168C15.2812 23.168 15.457 23.181 15.6133 23.207C15.5091 21.1237 14.6107 19.9062 12.918 19.5547C12.3581 19.4375 11.7591 19.3789 11.1211 19.3789C10.4961 19.3789 9.8776 19.4375 9.26562 19.5547C8.66667 19.6589 8.08073 19.8021 7.50781 19.9844C6.24479 20.388 5.33984 20.8503 4.79297 21.3711L4.73438 21.332L4.14844 17.0156C6.45312 15.8047 8.97266 15.1992 11.707 15.1992C15.9518 15.1992 18.6667 16.7292 19.8516 19.7891C20.2292 20.7656 20.418 21.8659 20.418 23.0898V30.1602C20.418 31.6706 20.9518 32.6992 22.0195 33.2461L18.4844 36.4883C17.7422 36.0977 17.1432 35.5312 16.6875 34.7891ZM15.6328 26.7227C15.2812 26.6576 14.9167 26.625 14.5391 26.625H13.7578C10.8802 26.625 9.05078 27.263 8.26953 28.5391C8.03516 28.9167 7.91797 29.3138 7.91797 29.7305C7.91797 30.1471 7.98958 30.5182 8.13281 30.8438C8.28906 31.1562 8.54297 31.4167 8.89453 31.625C9.57161 32.0156 10.5742 32.2109 11.9023 32.2109C13.2435 32.2109 14.4935 31.8919 15.6523 31.2539C15.6393 31.1107 15.6328 30.9609 15.6328 30.8047V26.7227Z" fill="#A7D1F9"/>
</svg>
