<svg width="24" height="24" viewBox="0 0 24 24" fill="none" xmlns="http://www.w3.org/2000/svg">
<path d="M5.25 12.25C5.25 11.6977 5.69772 11.25 6.25 11.25H8.25C8.80228 11.25 9.25 11.6977 9.25 12.25V15.75H6.25C5.69772 15.75 5.25 15.3023 5.25 14.75V12.25Z" stroke="black" stroke-opacity="0.85" stroke-width="1.5"/>
<path d="M9.25 7.75C9.25 7.19772 9.69772 6.75 10.25 6.75H12.25C12.8023 6.75 13.25 7.19772 13.25 7.75V15.75H9.25V7.75Z" stroke="black" stroke-opacity="0.85" stroke-width="1.5"/>
<path d="M13.25 3.25C13.25 2.69772 13.6977 2.25 14.25 2.25H16.25C16.8023 2.25 17.25 2.69772 17.25 3.25V14.75C17.25 15.3023 16.8023 15.75 16.25 15.75H13.25V3.25Z" stroke="black" stroke-opacity="0.85" stroke-width="1.5"/>
</svg>
