<svg width="24" height="24" viewBox="0 0 24 24" fill="none" xmlns="http://www.w3.org/2000/svg">
<path d="M13.732 2.5C14.3572 3.5829 15.5127 4.25 16.7631 4.25C18.3027 4.25 19.265 5.91669 18.4952 7.25004C17.8699 8.33293 17.8699 9.66712 18.4952 10.75C19.2649 12.0833 18.3027 13.75 16.7631 13.75C15.5127 13.75 14.3573 14.4171 13.7321 15.5C12.9622 16.8333 11.0377 16.8333 10.2679 15.5C9.64272 14.4171 8.48728 13.75 7.23685 13.75C5.69724 13.75 4.73497 12.0833 5.50478 10.75C6.12999 9.66706 6.13 8.33287 5.50478 7.24997C4.73499 5.91665 5.69723 4.25 7.23682 4.25C8.48724 4.25 9.64268 3.5829 10.2679 2.50001C11.0377 1.16667 12.9622 1.16667 13.732 2.5Z" stroke="black" stroke-opacity="0.85" stroke-width="1.5"/>
<path d="M10.5008 8.9504C10.4943 9.14728 10.5266 9.34351 10.596 9.52789C10.6653 9.71227 10.7702 9.88119 10.9048 10.025C11.0395 10.1688 11.2011 10.2847 11.3805 10.3661C11.5599 10.4474 11.7535 10.4927 11.9504 10.4992C12.1473 10.5057 12.3435 10.4734 12.5279 10.404C12.7123 10.3347 12.8812 10.2298 13.025 10.0952C13.1688 9.96054 13.2847 9.79893 13.3661 9.61953C13.4474 9.44014 13.4927 9.24647 13.4992 9.0496C13.5057 8.85272 13.4734 8.65649 13.404 8.47211C13.3347 8.28773 13.2298 8.11881 13.0952 7.97499C12.9605 7.83117 12.7989 7.71528 12.6195 7.63392C12.4401 7.55256 12.2465 7.50733 12.0496 7.50082C11.8527 7.49431 11.6565 7.52664 11.4721 7.59596C11.2877 7.66528 11.1188 7.77024 10.975 7.90485C10.8312 8.03946 10.7153 8.20107 10.6339 8.38047C10.5526 8.55986 10.5073 8.75353 10.5008 8.9504Z" stroke="black" stroke-opacity="0.85" stroke-width="1.5" stroke-linecap="round" stroke-linejoin="round"/>
</svg>
